<svg width="332" height="289" viewBox="0 0 332 289" fill="none" xmlns="http://www.w3.org/2000/svg">
<path d="M165.12 109.505C158.745 109.505 152.514 111.584 147.215 115.48C141.915 119.376 137.787 124.913 135.35 131.39C132.914 137.868 132.28 144.994 133.528 151.869C134.777 158.742 137.851 165.054 142.363 170.006C146.875 174.958 152.621 178.326 158.875 179.684C165.128 181.043 171.608 180.332 177.493 177.639C183.379 174.947 188.405 170.396 191.937 164.56C195.469 158.725 197.347 151.869 197.335 144.859C197.317 135.476 193.916 126.484 187.876 119.856C181.836 113.227 173.652 109.505 165.12 109.505Z" fill="#5D60EF"/>
<path d="M64.4307 144.857C64.4307 137.851 62.5415 131.001 59.0017 125.175C55.4613 119.35 50.4301 114.809 44.5439 112.128C38.6571 109.447 32.1795 108.745 25.9301 110.112C19.6814 111.479 13.9414 114.853 9.4358 119.807C4.93022 124.762 1.86191 131.074 0.618948 137.946C-0.624014 144.818 0.0138036 151.941 2.45212 158.414C4.89044 164.888 9.01971 170.42 14.3176 174.313C19.6155 178.205 25.844 180.283 32.2154 180.283C40.7596 180.283 48.9536 176.551 54.995 169.907C61.0363 163.263 64.4307 154.253 64.4307 144.857Z" fill="#5D60EF"/>
<path d="M197.335 253.574C197.335 246.567 195.446 239.718 191.905 233.893C188.366 228.067 183.334 223.526 177.448 220.845C171.561 218.163 165.084 217.462 158.834 218.829C152.586 220.196 146.845 223.57 142.34 228.524C137.835 233.478 134.766 239.791 133.523 246.663C132.28 253.535 132.918 260.658 135.356 267.131C137.795 273.604 141.924 279.137 147.222 283.029C152.519 286.922 158.748 289 165.12 289C173.663 289 181.858 285.267 187.899 278.624C193.941 271.98 197.335 262.969 197.335 253.574Z" fill="#5D60EF"/>
<path d="M267.569 144.859C267.556 151.869 269.435 158.725 272.967 164.56C276.499 170.396 281.526 174.947 287.411 177.639C293.297 180.332 299.776 181.043 306.03 179.684C312.283 178.326 318.029 174.958 322.541 170.006C327.053 165.054 330.128 158.742 331.376 151.869C332.625 144.994 331.99 137.868 329.554 131.39C327.118 124.913 322.989 119.376 317.69 115.48C312.39 111.584 306.159 109.505 299.785 109.505C291.252 109.505 283.068 113.227 277.028 119.856C270.989 126.484 267.587 135.476 267.569 144.859Z" fill="#5D60EF"/>
<path d="M168.836 70.8511C175.208 70.8511 181.437 68.7736 186.735 64.8811C192.032 60.9886 196.161 55.456 198.6 48.9825C201.038 42.509 201.676 35.3866 200.433 28.5144C199.19 21.6422 196.121 15.3301 191.616 10.3755C187.111 5.42162 181.371 2.04754 175.122 0.680708C168.872 -0.686127 162.395 0.0152271 156.508 2.69655C150.622 5.37787 145.59 9.91869 142.051 15.7439C138.511 21.5698 136.621 28.419 136.621 35.4253C136.621 44.821 140.015 53.8317 146.057 60.4758C152.099 67.1192 160.293 70.8511 168.836 70.8511Z" fill="#5D60EF"/>
<path d="M121.231 225.463C132.826 212.79 148.51 205.677 164.859 205.677C181.207 205.677 196.891 212.79 208.486 225.463C212.997 230.404 218.737 233.764 224.982 235.12C231.229 236.475 237.699 235.765 243.579 233.08C249.458 230.395 254.482 225.854 258.016 220.031C261.55 214.209 263.436 207.365 263.436 200.364C263.436 193.363 261.55 186.52 258.016 180.698C254.482 174.874 249.458 170.334 243.579 167.649C237.699 164.963 231.229 164.253 224.982 165.609C218.737 166.965 212.997 170.324 208.486 175.265C202.751 181.631 195.924 186.684 188.402 190.133C180.881 193.581 172.812 195.356 164.663 195.356C156.514 195.356 148.445 193.581 140.923 190.133C133.402 186.684 126.576 181.631 120.84 175.265C116.33 170.324 110.589 166.965 104.343 165.609C98.0973 164.253 91.6268 164.963 85.7472 167.649C79.8683 170.334 74.8443 174.874 71.3104 180.698C67.7758 186.52 65.8898 193.363 65.8898 200.364C65.8898 207.365 67.7758 214.209 71.3104 220.031C74.8443 225.854 79.8683 230.395 85.7472 233.08C91.6268 235.765 98.0973 236.475 104.343 235.12C110.589 233.764 116.33 230.404 120.84 225.463H121.231Z" fill="#5D60EF"/>
<path d="M102.45 123.491C110.908 123.453 119.022 119.801 125.079 113.308C136.674 100.635 152.358 93.5215 168.706 93.5215C185.055 93.5215 200.738 100.635 212.334 113.308C216.844 118.249 222.585 121.608 228.83 122.964C235.076 124.32 241.547 123.61 247.426 120.924C253.305 118.239 258.329 113.698 261.863 107.875C265.397 102.053 267.284 95.2089 267.284 88.2084C267.284 81.2078 265.397 74.3643 261.863 68.5413C258.329 62.719 253.305 58.1782 247.426 55.4925C241.547 52.8076 235.076 52.0977 228.83 53.453C222.585 54.8091 216.844 58.1688 212.334 63.1091C206.599 69.4642 199.777 74.5085 192.261 77.9507C184.745 81.3928 176.684 83.1648 168.543 83.1648C160.401 83.1648 152.34 81.3928 144.825 77.9507C137.309 74.5085 130.487 69.4642 124.753 63.1091C120.986 59.0308 116.364 56.0339 111.295 54.3838C106.227 52.7338 100.867 52.4799 95.6877 53.6459C90.5092 54.812 85.671 57.3613 81.5997 61.0696C77.5285 64.7778 74.35 69.5302 72.3441 74.9086C70.3381 80.287 69.566 86.1251 70.0968 91.9087C70.6276 97.6923 72.4445 103.244 75.3876 108.073C78.33 112.902 82.308 116.86 86.9707 119.599C91.6334 122.338 96.8375 123.773 102.124 123.778L102.45 123.491Z" fill="#5D60EF"/>
</svg>
